# MagicaVoxel @ Ephtracy

# group
o 

# material
mtllib Tree.mtl
usemtl palette

# normals
vn -1 0 0
vn 1 0 0
vn 0 0 1
vn 0 0 -1
vn 0 -1 0
vn 0 1 0

# texcoords
vt 0.373047 0.5
vt 0.767578 0.5

# verts
v -0.2 1 0.3
v -0.2 1 -0.3
v -0.2 1.3 0.3
v -0.2 1.3 -0.3
v -0.0999999 0.9 0.4
v -0.0999999 0.9 -0.3
v -0.0999999 1 0.3
v -0.0999999 1 -0.3
v -0.0999999 1.1 0.5
v -0.0999999 1.1 0.4
v -0.0999999 1.3 0.3
v -0.0999999 1.3 -0.3
v -0.0999999 1.4 0.5
v -0.0999999 1.4 0.3
v -0.0999999 1.5 0.3
v -0.0999999 1.5 -0.3
v 5.96046e-08 0.8 0.2
v 5.96046e-08 0.8 0
v 5.96046e-08 0.9 0.2
v 5.96046e-08 0.9 0
v 5.96046e-08 1 -0.3
v 5.96046e-08 1 -0.4
v 5.96046e-08 1.2 -0.3
v 5.96046e-08 1.2 -0.4
v 5.96046e-08 1.4 0.4
v 5.96046e-08 1.4 0.3
v 5.96046e-08 1.5 0.3
v 5.96046e-08 1.5 -0.1
v 5.96046e-08 1.7 0.4
v 5.96046e-08 1.7 -0.1
v 0.1 0 0.2
v 0.1 0 -0.1
v 0.1 0.8 0.2
v 0.1 0.8 0
v 0.1 0.8 -0.1
v 0.1 0.8 -0.2
v 0.1 0.9 0
v 0.1 0.9 -0.2
v 0.1 1.2 -0.3
v 0.1 1.2 -0.4
v 0.1 1.2 -0.5
v 0.1 1.4 -0.3
v 0.1 1.4 -0.5
v 0.3 1.4 -0.1
v 0.3 1.4 -0.3
v 0.3 1.5 -0.1
v 0.3 1.5 -0.3
v 0.4 1.4 0.3
v 0.4 1.4 0
v 0.4 1.5 0.3
v 0.4 1.5 0
v 0.1 1.4 -0.1
v 0.1 1.4 -0.3
v 0.1 1.5 -0.1
v 0.1 1.5 -0.3
v 0.2 0.9 -0.2
v 0.2 0.9 -0.3
v 0.2 1 -0.2
v 0.2 1 -0.3
v 0.2 1.1 0.5
v 0.2 1.1 0.4
v 0.2 1.4 0.5
v 0.2 1.4 0.4
v 0.3 0 0.2
v 0.3 0 -0.1
v 0.3 0.8 0.2
v 0.3 0.8 -0.1
v 0.3 1.4 0.4
v 0.3 1.4 0
v 0.3 1.5 0
v 0.3 1.5 -0.1
v 0.3 1.7 0.4
v 0.3 1.7 -0.1
v 0.4 0.8 -0.1
v 0.4 0.8 -0.2
v 0.4 0.9 -0.1
v 0.4 0.9 -0.2
v 0.4 1.2 -0.3
v 0.4 1.2 -0.4
v 0.4 1.2 -0.5
v 0.4 1.4 -0.3
v 0.4 1.4 -0.5
v 0.5 0.8 0.2
v 0.5 0.8 -0.1
v 0.5 0.9 0.4
v 0.5 0.9 0.2
v 0.5 0.9 -0.1
v 0.5 0.9 -0.2
v 0.5 1 0.2
v 0.5 1 -0.2
v 0.5 1.1 0.3
v 0.5 1.1 0.2
v 0.5 1.2 -0.2
v 0.5 1.2 -0.3
v 0.5 1.4 0.4
v 0.5 1.4 0.3
v 0.5 1.4 0
v 0.5 1.4 -0.2
v 0.5 1.5 0
v 0.5 1.5 -0.3
v 0.6 1 -0.2
v 0.6 1 -0.4
v 0.6 1.1 0.3
v 0.6 1.1 0.2
v 0.6 1.2 -0.2
v 0.6 1.2 -0.4
v 0.6 1.3 0.3
v 0.6 1.3 0.2
v 0.6 1.3 0
v 0.6 1.3 -0.2
v 0.6 1.4 0
v 0.6 1.4 -0.2
v 0.7 1 0.2
v 0.7 1 -0.2
v 0.7 1.3 0.3
v 0.7 1.3 0.2
v 0.7 1.3 0
v 0.7 1.3 -0.2
v 0.7 1.5 0.3
v 0.7 1.5 0
v -0.0999999 1.1 0.5
v -0.0999999 1.4 0.5
v 0.2 1.1 0.5
v 0.2 1.4 0.5
v -0.0999999 0.9 0.4
v -0.0999999 1.1 0.4
v 5.96046e-08 1.4 0.4
v 5.96046e-08 1.7 0.4
v 0.2 1.1 0.4
v 0.2 1.4 0.4
v 0.3 1.4 0.4
v 0.3 1.7 0.4
v 0.5 0.9 0.4
v 0.5 1.4 0.4
v -0.2 1 0.3
v -0.2 1.3 0.3
v -0.0999999 1 0.3
v -0.0999999 1.3 0.3
v -0.0999999 1.4 0.3
v -0.0999999 1.5 0.3
v 5.96046e-08 1.4 0.3
v 5.96046e-08 1.5 0.3
v 0.4 1.4 0.3
v 0.4 1.5 0.3
v 0.5 1.1 0.3
v 0.5 1.4 0.3
v 0.6 1.1 0.3
v 0.6 1.3 0.3
v 0.7 1.3 0.3
v 0.7 1.5 0.3
v 5.96046e-08 0.8 0.2
v 5.96046e-08 0.9 0.2
v 0.1 0 0.2
v 0.1 0.8 0.2
v 0.3 0 0.2
v 0.3 0.8 0.2
v 0.5 0.8 0.2
v 0.5 0.9 0.2
v 0.5 1 0.2
v 0.5 1.1 0.2
v 0.6 1.1 0.2
v 0.6 1.3 0.2
v 0.7 1 0.2
v 0.7 1.3 0.2
v 0.3 1.4 0
v 0.3 1.5 0
v 0.4 1.4 0
v 0.4 1.5 0
v 5.96046e-08 0.8 0
v 5.96046e-08 0.9 0
v 0.1 0.8 0
v 0.1 0.9 0
v 0.5 1.4 0
v 0.5 1.5 0
v 0.6 1.3 0
v 0.6 1.4 0
v 0.7 1.3 0
v 0.7 1.5 0
v 5.96046e-08 1.5 -0.1
v 5.96046e-08 1.7 -0.1
v 0.1 0 -0.1
v 0.1 0.8 -0.1
v 0.1 1.4 -0.1
v 0.1 1.5 -0.1
v 0.3 0 -0.1
v 0.3 0.8 -0.1
v 0.3 1.4 -0.1
v 0.3 1.5 -0.1
v 0.3 1.7 -0.1
v 0.4 0.8 -0.1
v 0.4 0.9 -0.1
v 0.5 0.8 -0.1
v 0.5 0.9 -0.1
v 0.1 0.8 -0.2
v 0.1 0.9 -0.2
v 0.2 0.9 -0.2
v 0.2 1 -0.2
v 0.4 0.8 -0.2
v 0.4 0.9 -0.2
v 0.5 0.9 -0.2
v 0.5 1 -0.2
v 0.5 1.2 -0.2
v 0.5 1.4 -0.2
v 0.6 1 -0.2
v 0.6 1.2 -0.2
v 0.6 1.3 -0.2
v 0.6 1.4 -0.2
v 0.7 1 -0.2
v 0.7 1.3 -0.2
v -0.2 1 -0.3
v -0.2 1.3 -0.3
v -0.0999999 0.9 -0.3
v -0.0999999 1 -0.3
v -0.0999999 1.3 -0.3
v -0.0999999 1.5 -0.3
v 5.96046e-08 0.9 -0.3
v 5.96046e-08 1 -0.3
v 5.96046e-08 1.2 -0.3
v 0.1 1.2 -0.3
v 0.1 1.4 -0.3
v 0.1 1.5 -0.3
v 0.2 0.9 -0.3
v 0.2 1 -0.3
v 0.3 1.4 -0.3
v 0.3 1.5 -0.3
v 0.4 1.2 -0.3
v 0.4 1.4 -0.3
v 0.5 1.2 -0.3
v 0.5 1.5 -0.3
v 5.96046e-08 1 -0.4
v 5.96046e-08 1.2 -0.4
v 0.1 1.2 -0.4
v 0.4 1.2 -0.4
v 0.6 1 -0.4
v 0.6 1.2 -0.4
v 0.1 1.2 -0.5
v 0.1 1.4 -0.5
v 0.4 1.2 -0.5
v 0.4 1.4 -0.5
v 0.1 0 0.2
v 0.3 0 0.2
v 0.1 0 -0.1
v 0.3 0 -0.1
v 5.96046e-08 0.8 0.2
v 0.1 0.8 0.2
v 0.3 0.8 0.2
v 0.5 0.8 0.2
v 5.96046e-08 0.8 0
v 0.1 0.8 0
v 0.1 0.8 -0.1
v 0.3 0.8 -0.1
v 0.4 0.8 -0.1
v 0.5 0.8 -0.1
v 0.1 0.8 -0.2
v 0.4 0.8 -0.2
v -0.0999999 0.9 0.4
v 0.5 0.9 0.4
v 5.96046e-08 0.9 0.2
v 0.5 0.9 0.2
v 5.96046e-08 0.9 0
v 0.1 0.9 0
v 0.4 0.9 -0.1
v 0.5 0.9 -0.1
v 0.1 0.9 -0.2
v 0.2 0.9 -0.2
v 0.4 0.9 -0.2
v 0.5 0.9 -0.2
v -0.0999999 0.9 -0.3
v 5.96046e-08 0.9 -0.3
v 0.2 0.9 -0.3
v -0.2 1 0.3
v -0.0999999 1 0.3
v 0.5 1 0.2
v 0.7 1 0.2
v 0.2 1 -0.2
v 0.5 1 -0.2
v 0.6 1 -0.2
v 0.7 1 -0.2
v -0.2 1 -0.3
v -0.0999999 1 -0.3
v 5.96046e-08 1 -0.3
v 0.2 1 -0.3
v 5.96046e-08 1 -0.4
v 0.6 1 -0.4
v -0.0999999 1.1 0.5
v 0.2 1.1 0.5
v -0.0999999 1.1 0.4
v 0.2 1.1 0.4
v 0.5 1.1 0.3
v 0.6 1.1 0.3
v 0.5 1.1 0.2
v 0.6 1.1 0.2
v 0.1 1.2 -0.4
v 0.4 1.2 -0.4
v 0.1 1.2 -0.5
v 0.4 1.2 -0.5
v 0.6 1.3 0.3
v 0.7 1.3 0.3
v 0.6 1.3 0.2
v 0.7 1.3 0.2
v 0.5 1.2 -0.2
v 0.6 1.2 -0.2
v 5.96046e-08 1.2 -0.3
v 0.1 1.2 -0.3
v 0.4 1.2 -0.3
v 0.5 1.2 -0.3
v 5.96046e-08 1.2 -0.4
v 0.1 1.2 -0.4
v 0.4 1.2 -0.4
v 0.6 1.2 -0.4
v -0.2 1.3 0.3
v -0.0999999 1.3 0.3
v 0.6 1.3 0
v 0.7 1.3 0
v 0.6 1.3 -0.2
v 0.7 1.3 -0.2
v -0.2 1.3 -0.3
v -0.0999999 1.3 -0.3
v -0.0999999 1.4 0.5
v 0.2 1.4 0.5
v 5.96046e-08 1.4 0.4
v 0.2 1.4 0.4
v 0.3 1.4 0.4
v 0.5 1.4 0.4
v -0.0999999 1.4 0.3
v 5.96046e-08 1.4 0.3
v 0.4 1.4 0.3
v 0.5 1.4 0.3
v 0.3 1.4 0
v 0.4 1.4 0
v 0.5 1.4 0
v 0.6 1.4 0
v 0.1 1.4 -0.1
v 0.3 1.4 -0.1
v 0.5 1.4 -0.2
v 0.6 1.4 -0.2
v 0.1 1.4 -0.3
v 0.3 1.4 -0.3
v 0.4 1.4 -0.3
v 0.1 1.4 -0.5
v 0.4 1.4 -0.5
v -0.0999999 1.5 0.3
v 5.96046e-08 1.5 0.3
v 0.4 1.5 0.3
v 0.7 1.5 0.3
v 0.3 1.5 0
v 0.4 1.5 0
v 0.5 1.5 0
v 0.7 1.5 0
v 5.96046e-08 1.5 -0.1
v 0.1 1.5 -0.1
v 0.3 1.5 -0.1
v -0.0999999 1.5 -0.3
v 0.1 1.5 -0.3
v 0.3 1.5 -0.3
v 0.5 1.5 -0.3
v 5.96046e-08 1.7 0.4
v 0.3 1.7 0.4
v 5.96046e-08 1.7 -0.1
v 0.3 1.7 -0.1

# faces
f 3/2/1 2/2/1 1/2/1
f 4/2/1 2/2/1 3/2/1
f 7/2/1 6/2/1 5/2/1
f 8/2/1 6/2/1 7/2/1
f 10/2/1 7/2/1 5/2/1
f 11/2/1 7/2/1 10/2/1
f 11/2/1 10/2/1 9/2/1
f 13/2/1 11/2/1 9/2/1
f 13/2/1 12/2/1 11/2/1
f 14/2/1 12/2/1 13/2/1
f 15/2/1 12/2/1 14/2/1
f 16/2/1 12/2/1 15/2/1
f 19/1/1 18/1/1 17/1/1
f 20/1/1 18/1/1 19/1/1
f 23/2/1 22/2/1 21/2/1
f 24/2/1 22/2/1 23/2/1
f 27/2/1 26/2/1 25/2/1
f 29/2/1 27/2/1 25/2/1
f 29/2/1 28/2/1 27/2/1
f 30/2/1 28/2/1 29/2/1
f 33/1/1 32/1/1 31/1/1
f 34/1/1 32/1/1 33/1/1
f 35/1/1 32/1/1 34/1/1
f 37/1/1 36/1/1 35/1/1
f 37/1/1 35/1/1 34/1/1
f 38/1/1 36/1/1 37/1/1
f 42/2/1 40/2/1 39/2/1
f 42/2/1 41/2/1 40/2/1
f 43/2/1 41/2/1 42/2/1
f 46/2/1 45/2/1 44/2/1
f 47/2/1 45/2/1 46/2/1
f 50/2/1 49/2/1 48/2/1
f 51/2/1 49/2/1 50/2/1
f 52/2/2 53/2/2 54/2/2
f 54/2/2 53/2/2 55/2/2
f 56/1/2 57/1/2 58/1/2
f 58/1/2 57/1/2 59/1/2
f 60/2/2 61/2/2 62/2/2
f 62/2/2 61/2/2 63/2/2
f 64/1/2 65/1/2 66/1/2
f 66/1/2 65/1/2 67/1/2
f 68/2/2 69/2/2 70/2/2
f 68/2/2 70/2/2 72/2/2
f 70/2/2 71/2/2 72/2/2
f 72/2/2 71/2/2 73/2/2
f 74/1/2 75/1/2 76/1/2
f 76/1/2 75/1/2 77/1/2
f 78/2/2 79/2/2 81/2/2
f 79/2/2 80/2/2 81/2/2
f 81/2/2 80/2/2 82/2/2
f 83/1/2 84/1/2 86/1/2
f 86/1/2 84/1/2 87/1/2
f 85/2/2 86/2/2 89/2/2
f 87/1/2 88/1/2 89/1/2
f 86/1/2 87/1/2 89/1/2
f 89/1/2 88/1/2 90/1/2
f 85/2/2 89/2/2 91/2/2
f 91/2/2 89/2/2 92/2/2
f 85/2/2 91/2/2 95/2/2
f 95/2/2 91/2/2 96/2/2
f 93/2/2 94/2/2 98/2/2
f 97/2/2 98/2/2 99/2/2
f 98/2/2 94/2/2 100/2/2
f 99/2/2 98/2/2 100/2/2
f 101/2/2 102/2/2 105/2/2
f 105/2/2 102/2/2 106/2/2
f 103/2/2 104/2/2 107/2/2
f 107/2/2 104/2/2 108/2/2
f 109/2/2 110/2/2 111/2/2
f 111/2/2 110/2/2 112/2/2
f 113/2/2 114/2/2 116/2/2
f 116/2/2 114/2/2 117/2/2
f 117/2/2 114/2/2 118/2/2
f 115/2/2 116/2/2 119/2/2
f 116/2/2 117/2/2 119/2/2
f 119/2/2 117/2/2 120/2/2
f 123/2/3 122/2/3 121/2/3
f 124/2/3 122/2/3 123/2/3
f 129/2/3 126/2/3 125/2/3
f 130/2/3 128/2/3 127/2/3
f 131/2/3 128/2/3 130/2/3
f 131/2/3 130/2/3 129/2/3
f 132/2/3 128/2/3 131/2/3
f 133/2/3 129/2/3 125/2/3
f 133/2/3 131/2/3 129/2/3
f 134/2/3 131/2/3 133/2/3
f 137/2/3 136/2/3 135/2/3
f 138/2/3 136/2/3 137/2/3
f 141/2/3 140/2/3 139/2/3
f 142/2/3 140/2/3 141/2/3
f 146/2/3 144/2/3 143/2/3
f 147/2/3 146/2/3 145/2/3
f 148/2/3 146/2/3 147/2/3
f 149/2/3 146/2/3 148/2/3
f 150/2/3 144/2/3 146/2/3
f 150/2/3 146/2/3 149/2/3
f 154/1/3 152/1/3 151/1/3
f 155/1/3 154/1/3 153/1/3
f 156/1/3 152/1/3 154/1/3
f 156/1/3 154/1/3 155/1/3
f 157/1/3 152/1/3 156/1/3
f 158/1/3 152/1/3 157/1/3
f 161/2/3 160/2/3 159/2/3
f 163/2/3 161/2/3 159/2/3
f 163/2/3 162/2/3 161/2/3
f 164/2/3 162/2/3 163/2/3
f 167/2/3 166/2/3 165/2/3
f 168/2/3 166/2/3 167/2/3
f 169/1/4 170/1/4 171/1/4
f 171/1/4 170/1/4 172/1/4
f 173/2/4 174/2/4 176/2/4
f 175/2/4 176/2/4 177/2/4
f 176/2/4 174/2/4 178/2/4
f 177/2/4 176/2/4 178/2/4
f 179/2/4 180/2/4 184/2/4
f 181/1/4 182/1/4 185/1/4
f 185/1/4 182/1/4 186/1/4
f 183/2/4 184/2/4 187/2/4
f 184/2/4 180/2/4 188/2/4
f 187/2/4 184/2/4 188/2/4
f 188/2/4 180/2/4 189/2/4
f 190/1/4 191/1/4 192/1/4
f 192/1/4 191/1/4 193/1/4
f 194/1/4 195/1/4 196/1/4
f 194/1/4 196/1/4 198/1/4
f 196/1/4 197/1/4 198/1/4
f 198/1/4 197/1/4 199/1/4
f 199/1/4 197/1/4 200/1/4
f 200/1/4 197/1/4 201/1/4
f 202/2/4 203/2/4 205/2/4
f 205/2/4 203/2/4 206/2/4
f 206/2/4 203/2/4 207/2/4
f 204/2/4 205/2/4 208/2/4
f 205/2/4 206/2/4 208/2/4
f 208/2/4 206/2/4 209/2/4
f 210/2/4 211/2/4 213/2/4
f 213/2/4 211/2/4 214/2/4
f 212/2/4 213/2/4 216/2/4
f 214/2/4 215/2/4 216/2/4
f 213/2/4 214/2/4 216/2/4
f 216/2/4 215/2/4 217/2/4
f 217/2/4 215/2/4 218/2/4
f 218/2/4 215/2/4 219/2/4
f 219/2/4 215/2/4 220/2/4
f 220/2/4 215/2/4 221/2/4
f 216/1/4 217/1/4 222/1/4
f 222/1/4 217/1/4 223/1/4
f 224/2/4 225/2/4 227/2/4
f 226/2/4 227/2/4 228/2/4
f 227/2/4 225/2/4 229/2/4
f 228/2/4 227/2/4 229/2/4
f 230/2/4 231/2/4 232/2/4
f 230/2/4 232/2/4 233/2/4
f 230/2/4 233/2/4 234/2/4
f 234/2/4 233/2/4 235/2/4
f 236/2/4 237/2/4 238/2/4
f 238/2/4 237/2/4 239/2/4
f 242/1/5 241/1/5 240/1/5
f 243/1/5 241/1/5 242/1/5
f 248/1/5 245/1/5 244/1/5
f 249/1/5 245/1/5 248/1/5
f 251/1/5 247/1/5 246/1/5
f 252/1/5 247/1/5 251/1/5
f 253/1/5 247/1/5 252/1/5
f 254/1/5 251/1/5 250/1/5
f 254/1/5 252/1/5 251/1/5
f 255/1/5 252/1/5 254/1/5
f 258/2/5 257/2/5 256/2/5
f 259/2/5 257/2/5 258/2/5
f 260/2/5 258/2/5 256/2/5
f 264/1/5 261/1/5 260/1/5
f 266/1/5 263/1/5 262/1/5
f 267/1/5 263/1/5 266/1/5
f 268/2/5 260/2/5 256/2/5
f 269/1/5 265/1/5 264/1/5
f 269/2/5 260/2/5 268/2/5
f 269/1/5 264/1/5 260/1/5
f 270/1/5 265/1/5 269/1/5
f 276/2/5 274/2/5 273/2/5
f 277/2/5 274/2/5 276/2/5
f 278/2/5 274/2/5 277/2/5
f 279/2/5 272/2/5 271/2/5
f 280/2/5 272/2/5 279/2/5
f 282/2/5 276/2/5 275/2/5
f 282/2/5 277/2/5 276/2/5
f 283/2/5 282/2/5 281/2/5
f 284/2/5 277/2/5 282/2/5
f 284/2/5 282/2/5 283/2/5
f 287/2/5 286/2/5 285/2/5
f 288/2/5 286/2/5 287/2/5
f 291/2/5 290/2/5 289/2/5
f 292/2/5 290/2/5 291/2/5
f 295/2/5 294/2/5 293/2/5
f 296/2/5 294/2/5 295/2/5
f 299/2/5 298/2/5 297/2/5
f 300/2/5 298/2/5 299/2/5
f 301/2/6 302/2/6 306/2/6
f 303/2/6 304/2/6 307/2/6
f 307/2/6 304/2/6 308/2/6
f 305/2/6 306/2/6 309/2/6
f 306/2/6 302/2/6 310/2/6
f 309/2/6 306/2/6 310/2/6
f 313/2/6 314/2/6 315/2/6
f 315/2/6 314/2/6 316/2/6
f 311/2/6 312/2/6 317/2/6
f 317/2/6 312/2/6 318/2/6
f 319/2/6 320/2/6 321/2/6
f 321/2/6 320/2/6 322/2/6
f 319/2/6 321/2/6 325/2/6
f 325/2/6 321/2/6 326/2/6
f 323/2/6 324/2/6 327/2/6
f 327/2/6 324/2/6 328/2/6
f 323/2/6 327/2/6 329/2/6
f 329/2/6 327/2/6 330/2/6
f 331/2/6 332/2/6 335/2/6
f 335/2/6 332/2/6 336/2/6
f 333/2/6 334/2/6 337/2/6
f 337/2/6 334/2/6 338/2/6
f 337/2/6 338/2/6 340/2/6
f 338/2/6 339/2/6 340/2/6
f 340/2/6 339/2/6 341/2/6
f 344/2/6 345/2/6 347/2/6
f 347/2/6 345/2/6 348/2/6
f 348/2/6 345/2/6 349/2/6
f 342/2/6 343/2/6 350/2/6
f 346/2/6 347/2/6 352/2/6
f 347/2/6 348/2/6 352/2/6
f 350/2/6 351/2/6 353/2/6
f 342/2/6 350/2/6 353/2/6
f 353/2/6 351/2/6 354/2/6
f 352/2/6 348/2/6 355/2/6
f 355/2/6 348/2/6 356/2/6
f 357/2/6 358/2/6 359/2/6
f 359/2/6 358/2/6 360/2/6
